<?xml version="1.0" encoding="utf-8" standalone="no"?>
<!DOCTYPE svg PUBLIC "-//W3C//DTD SVG 1.1//EN"
  "http://www.w3.org/Graphics/SVG/1.1/DTD/svg11.dtd">
<svg xmlns:xlink="http://www.w3.org/1999/xlink" width="539.406067pt" height="532.8pt" viewBox="0 0 539.406067 532.8" xmlns="http://www.w3.org/2000/svg" version="1.1">
 <metadata>
  <rdf:RDF xmlns:dc="http://purl.org/dc/elements/1.1/" xmlns:cc="http://creativecommons.org/ns#" xmlns:rdf="http://www.w3.org/1999/02/22-rdf-syntax-ns#">
   <cc:Work>
    <dc:type rdf:resource="http://purl.org/dc/dcmitype/StillImage"/>
    <dc:date>2026-04-09T13:41:58.680364</dc:date>
    <dc:format>image/svg+xml</dc:format>
    <dc:creator>
     <cc:Agent>
      <dc:title>Matplotlib v3.10.8, https://matplotlib.org/</dc:title>
     </cc:Agent>
    </dc:creator>
   </cc:Work>
  </rdf:RDF>
 </metadata>
 <defs>
  <style type="text/css">*{stroke-linejoin: round; stroke-linecap: butt}</style>
 </defs>
 <g id="figure_1">
  <g id="patch_1">
   <path d="M -0 532.8 
L 539.406067 532.8 
L 539.406067 0 
L -0 0 
z
" style="fill: #ffffff"/>
  </g>
  <g id="patch_2">
   <path d="M 7.2 525.6 
L 525.6 525.6 
L 525.6 7.2 
L 7.2 7.2 
z
" style="fill: #ffffff"/>
  </g>
  <g id="pane3d_1">
   <g id="patch_3">
    <path d="M 273.405405 293.089834 
L 41.068629 375.178993 
L 33.86363 140.019605 
L 273.405405 73.059643 
" style="fill: none; opacity: 0.5; stroke: #e5e7eb; stroke-linejoin: miter"/>
   </g>
  </g>
  <g id="pane3d_2">
   <g id="patch_4">
    <path d="M 505.742182 375.178993 
L 273.405405 293.089834 
L 273.405405 73.059643 
L 512.947181 140.019605 
" style="fill: none; opacity: 0.5; stroke: #e5e7eb; stroke-linejoin: miter"/>
   </g>
  </g>
  <g id="pane3d_3">
   <g id="patch_5">
    <path d="M 505.742182 375.178993 
L 273.405405 293.089834 
L 41.068629 375.178993 
L 273.405405 471.140642 
" style="fill: none; opacity: 0.5; stroke: #e5e7eb; stroke-linejoin: miter"/>
   </g>
  </g>
  <g id="grid3d_1">
   <g id="Line3DCollection_1">
    <path d="M 237.839234 456.450809 
L 470.359033 362.677429 
L 476.397469 129.802735 
" style="fill: none; stroke: #b0b0b0; stroke-width: 0.8"/>
    <path d="M 194.557045 438.574043 
L 427.210682 347.432267 
L 431.860286 117.353098 
" style="fill: none; stroke: #b0b0b0; stroke-width: 0.8"/>
    <path d="M 152.528052 421.214882 
L 385.217962 332.595412 
L 388.551493 105.246837 
" style="fill: none; stroke: #b0b0b0; stroke-width: 0.8"/>
    <path d="M 111.698603 404.351166 
L 344.335061 318.150678 
L 346.42096 93.46994 
" style="fill: none; stroke: #b0b0b0; stroke-width: 0.8"/>
    <path d="M 72.018066 387.961984 
L 304.518555 304.082722 
L 305.421251 82.009146 
" style="fill: none; stroke: #b0b0b0; stroke-width: 0.8"/>
   </g>
  </g>
  <g id="grid3d_2">
   <g id="Line3DCollection_2">
    <path d="M 241.38956 82.009146 
L 242.292256 304.082722 
L 474.792744 387.961984 
" style="fill: none; stroke: #b0b0b0; stroke-width: 0.8"/>
    <path d="M 200.38985 93.46994 
L 202.47575 318.150678 
L 435.112208 404.351166 
" style="fill: none; stroke: #b0b0b0; stroke-width: 0.8"/>
    <path d="M 158.259318 105.246837 
L 161.592849 332.595412 
L 394.282759 421.214882 
" style="fill: none; stroke: #b0b0b0; stroke-width: 0.8"/>
    <path d="M 114.950525 117.353098 
L 119.600129 347.432267 
L 352.253765 438.574043 
" style="fill: none; stroke: #b0b0b0; stroke-width: 0.8"/>
    <path d="M 70.413341 129.802735 
L 76.451778 362.677429 
L 308.971577 456.450809 
" style="fill: none; stroke: #b0b0b0; stroke-width: 0.8"/>
   </g>
  </g>
  <g id="grid3d_3">
   <g id="Line3DCollection_3">
    <path d="M 506.744817 342.454636 
L 273.405405 262.411766 
L 40.065994 342.454636 
" style="fill: none; stroke: #b0b0b0; stroke-width: 0.8"/>
    <path d="M 508.010345 301.149856 
L 273.405405 223.71712 
L 38.800466 301.149856 
" style="fill: none; stroke: #b0b0b0; stroke-width: 0.8"/>
    <path d="M 509.289676 259.394595 
L 273.405405 184.631397 
L 37.521135 259.394595 
" style="fill: none; stroke: #b0b0b0; stroke-width: 0.8"/>
    <path d="M 510.583036 217.181443 
L 273.405405 145.148636 
L 36.227775 217.181443 
" style="fill: none; stroke: #b0b0b0; stroke-width: 0.8"/>
    <path d="M 511.890657 174.502828 
L 273.405405 105.262757 
L 34.920154 174.502828 
" style="fill: none; stroke: #b0b0b0; stroke-width: 0.8"/>
   </g>
  </g>
  <g id="axis3d_1">
   <g id="line2d_1">
    <path d="M 41.068629 375.178993 
L 273.405405 471.140642 
" style="fill: none; stroke: #d1d5db; stroke-width: 0.8; stroke-linecap: square"/>
   </g>
   <g id="xtick_1">
    <g id="line2d_2">
     <path d="M 239.853349 455.638532 
L 233.802921 458.078622 
" style="fill: none; stroke: #000000; stroke-width: 0.8; stroke-linecap: square"/>
    </g>
   </g>
   <g id="xtick_2">
    <g id="line2d_3">
     <path d="M 196.570059 437.785448 
L 190.52306 440.154352 
" style="fill: none; stroke: #000000; stroke-width: 0.8; stroke-linecap: square"/>
    </g>
   </g>
   <g id="xtick_3">
    <g id="line2d_4">
     <path d="M 154.539183 420.448947 
L 148.497954 422.749736 
" style="fill: none; stroke: #000000; stroke-width: 0.8; stroke-linecap: square"/>
    </g>
   </g>
   <g id="xtick_4">
    <g id="line2d_5">
     <path d="M 113.707139 403.606929 
L 107.673817 405.8425 
" style="fill: none; stroke: #000000; stroke-width: 0.8; stroke-linecap: square"/>
    </g>
   </g>
   <g id="xtick_5">
    <g id="line2d_6">
     <path d="M 74.023356 387.238535 
L 67.999893 389.411622 
" style="fill: none; stroke: #000000; stroke-width: 0.8; stroke-linecap: square"/>
    </g>
   </g>
  </g>
  <g id="axis3d_2">
   <g id="line2d_7">
    <path d="M 505.742182 375.178993 
L 273.405405 471.140642 
" style="fill: none; stroke: #d1d5db; stroke-width: 0.8; stroke-linecap: square"/>
   </g>
   <g id="xtick_6">
    <g id="line2d_8">
     <path d="M 472.787455 387.238535 
L 478.810917 389.411622 
" style="fill: none; stroke: #000000; stroke-width: 0.8; stroke-linecap: square"/>
    </g>
   </g>
   <g id="xtick_7">
    <g id="line2d_9">
     <path d="M 433.103672 403.606929 
L 439.136994 405.8425 
" style="fill: none; stroke: #000000; stroke-width: 0.8; stroke-linecap: square"/>
    </g>
   </g>
   <g id="xtick_8">
    <g id="line2d_10">
     <path d="M 392.271628 420.448947 
L 398.312857 422.749736 
" style="fill: none; stroke: #000000; stroke-width: 0.8; stroke-linecap: square"/>
    </g>
   </g>
   <g id="xtick_9">
    <g id="line2d_11">
     <path d="M 350.240752 437.785448 
L 356.287751 440.154352 
" style="fill: none; stroke: #000000; stroke-width: 0.8; stroke-linecap: square"/>
    </g>
   </g>
   <g id="xtick_10">
    <g id="line2d_12">
     <path d="M 306.957462 455.638532 
L 313.00789 458.078622 
" style="fill: none; stroke: #000000; stroke-width: 0.8; stroke-linecap: square"/>
    </g>
   </g>
  </g>
  <g id="axis3d_3">
   <g id="line2d_13">
    <path d="M 505.742182 375.178993 
L 512.947181 140.019605 
" style="fill: none; stroke: #d1d5db; stroke-width: 0.8; stroke-linecap: square"/>
   </g>
   <g id="xtick_11">
    <g id="line2d_14">
     <path d="M 504.733291 341.764619 
L 510.775432 343.837266 
" style="fill: none; stroke: #000000; stroke-width: 0.8; stroke-linecap: square"/>
    </g>
   </g>
   <g id="xtick_12">
    <g id="line2d_15">
     <path d="M 505.987121 300.482079 
L 512.064443 302.487934 
" style="fill: none; stroke: #000000; stroke-width: 0.8; stroke-linecap: square"/>
    </g>
   </g>
   <g id="xtick_13">
    <g id="line2d_16">
     <path d="M 507.254617 258.749585 
L 513.367531 260.687065 
" style="fill: none; stroke: #000000; stroke-width: 0.8; stroke-linecap: square"/>
    </g>
   </g>
   <g id="xtick_14">
    <g id="line2d_17">
     <path d="M 508.536003 216.559742 
L 514.684926 218.427221 
" style="fill: none; stroke: #000000; stroke-width: 0.8; stroke-linecap: square"/>
    </g>
   </g>
   <g id="xtick_15">
    <g id="line2d_18">
     <path d="M 509.831509 173.90499 
L 516.016866 175.700801 
" style="fill: none; stroke: #000000; stroke-width: 0.8; stroke-linecap: square"/>
    </g>
   </g>
  </g>
  <g id="axes_1">
   <g id="Line3DCollection_4">
    <path d="M 271.920779 215.126183 
L 273.405405 259.394595 
" clip-path="url(#p044d9a6f35)" style="fill: none; stroke: #059669; stroke-opacity: 0.9; stroke-width: 2.2"/>
    <path d="M 271.920779 215.126183 
L 272.002568 218.824781 
" clip-path="url(#p044d9a6f35)" style="fill: none; stroke: #059669; stroke-opacity: 0.9; stroke-width: 2.2"/>
    <path d="M 271.920779 215.126183 
L 272.00495 216.375667 
" clip-path="url(#p044d9a6f35)" style="fill: none; stroke: #059669; stroke-opacity: 0.9; stroke-width: 2.2"/>
   </g>
   <g id="Line3DCollection_5">
    <path d="M 162.615816 294.539245 
L 273.405405 259.394595 
" clip-path="url(#p044d9a6f35)" style="fill: none; stroke-dasharray: 3.7,1.6; stroke-dashoffset: 0; stroke: #94a3b8; stroke-opacity: 0.4"/>
    <path d="M 162.615816 294.539245 
L 169.684499 293.683728 
" clip-path="url(#p044d9a6f35)" style="fill: none; stroke-dasharray: 3.7,1.6; stroke-dashoffset: 0; stroke: #94a3b8; stroke-opacity: 0.4"/>
    <path d="M 162.615816 294.539245 
L 168.428837 291.30788 
" clip-path="url(#p044d9a6f35)" style="fill: none; stroke-dasharray: 3.7,1.6; stroke-dashoffset: 0; stroke: #94a3b8; stroke-opacity: 0.4"/>
   </g>
   <g id="Line3DCollection_6">
    <path d="M 160.58312 289.690064 
L 273.405405 259.394595 
" clip-path="url(#p044d9a6f35)" style="fill: none; stroke-dasharray: 3.7,1.6; stroke-dashoffset: 0; stroke: #94a3b8; stroke-opacity: 0.4"/>
    <path d="M 160.58312 289.690064 
L 167.62466 289.151951 
" clip-path="url(#p044d9a6f35)" style="fill: none; stroke-dasharray: 3.7,1.6; stroke-dashoffset: 0; stroke: #94a3b8; stroke-opacity: 0.4"/>
    <path d="M 160.58312 289.690064 
L 166.703391 286.693369 
" clip-path="url(#p044d9a6f35)" style="fill: none; stroke-dasharray: 3.7,1.6; stroke-dashoffset: 0; stroke: #94a3b8; stroke-opacity: 0.4"/>
   </g>
   <g id="Line3DCollection_7">
    <path d="M 169.172536 304.785285 
L 273.405405 259.394595 
" clip-path="url(#p044d9a6f35)" style="fill: none; stroke-dasharray: 3.7,1.6; stroke-dashoffset: 0; stroke: #94a3b8; stroke-opacity: 0.4"/>
    <path d="M 169.172536 304.785285 
L 175.95034 303.254344 
" clip-path="url(#p044d9a6f35)" style="fill: none; stroke-dasharray: 3.7,1.6; stroke-dashoffset: 0; stroke: #94a3b8; stroke-opacity: 0.4"/>
    <path d="M 169.172536 304.785285 
L 174.57655 301.010678 
" clip-path="url(#p044d9a6f35)" style="fill: none; stroke-dasharray: 3.7,1.6; stroke-dashoffset: 0; stroke: #94a3b8; stroke-opacity: 0.4"/>
   </g>
   <g id="Line3DCollection_8">
    <path d="M 381.286253 296.516865 
L 273.405405 259.394595 
" clip-path="url(#p044d9a6f35)" style="fill: none; stroke: #1d4ed8; stroke-opacity: 0.9; stroke-width: 2.2"/>
    <path d="M 381.286253 296.516865 
L 374.48813 295.543195 
" clip-path="url(#p044d9a6f35)" style="fill: none; stroke: #1d4ed8; stroke-opacity: 0.9; stroke-width: 2.2"/>
    <path d="M 381.286253 296.516865 
L 375.442143 293.139667 
" clip-path="url(#p044d9a6f35)" style="fill: none; stroke: #1d4ed8; stroke-opacity: 0.9; stroke-width: 2.2"/>
   </g>
   <g id="Line3DCollection_9">
    <path d="M 306.436427 208.032294 
L 273.405405 259.394595 
" clip-path="url(#p044d9a6f35)" style="fill: none; stroke: #d97706; stroke-opacity: 0.9; stroke-width: 2.2"/>
    <path d="M 306.436427 208.032294 
L 305.244993 212.292663 
" clip-path="url(#p044d9a6f35)" style="fill: none; stroke: #d97706; stroke-opacity: 0.9; stroke-width: 2.2"/>
    <path d="M 306.436427 208.032294 
L 303.69404 209.890671 
" clip-path="url(#p044d9a6f35)" style="fill: none; stroke: #d97706; stroke-opacity: 0.9; stroke-width: 2.2"/>
   </g>
   <g id="text_1">
    <!-- embedding("Bank") -->
    <g style="fill: #1d4ed8" transform="translate(400.973709 303.291404) scale(0.09 -0.09)">
     <defs>
      <path id="DejaVuSans-BoldOblique-65" d="M 4025 1619 
L 3988 1441 
L 1369 1441 
Q 1369 1422 1366 1386 
Q 1363 1350 1363 1331 
Q 1363 991 1567 822 
Q 1772 653 2181 653 
Q 2534 653 2926 759 
Q 3319 866 3750 1075 
L 3578 206 
Q 3169 56 2764 -17 
Q 2359 -91 1941 -91 
Q 1122 -91 676 287 
Q 231 666 231 1356 
Q 231 1756 373 2132 
Q 516 2509 788 2822 
Q 1109 3197 1557 3390 
Q 2006 3584 2553 3584 
Q 3263 3584 3680 3206 
Q 4097 2828 4097 2188 
Q 4097 2063 4080 1923 
Q 4063 1784 4025 1619 
z
M 2969 2131 
Q 2978 2172 2983 2214 
Q 2988 2256 2988 2297 
Q 2988 2547 2838 2694 
Q 2688 2841 2431 2841 
Q 2103 2841 1873 2661 
Q 1644 2481 1522 2131 
L 2969 2131 
z
" transform="scale(0.015625)"/>
      <path id="DejaVuSans-BoldOblique-6d" d="M 4013 2919 
Q 4272 3241 4601 3412 
Q 4931 3584 5288 3584 
Q 5756 3584 6026 3326 
Q 6297 3069 6297 2619 
Q 6297 2525 6283 2404 
Q 6269 2284 6241 2131 
L 5825 0 
L 4697 0 
L 5050 1825 
L 5059 1872 
Q 5141 2259 5141 2369 
Q 5141 2541 5042 2641 
Q 4944 2741 4775 2741 
Q 4453 2741 4229 2477 
Q 4006 2213 3909 1722 
L 3572 0 
L 2444 0 
L 2803 1825 
Q 2850 2059 2869 2179 
Q 2888 2300 2888 2369 
Q 2888 2544 2791 2642 
Q 2694 2741 2522 2741 
Q 2213 2741 1980 2467 
Q 1747 2194 1656 1722 
L 1319 0 
L 197 0 
L 878 3500 
L 2003 3500 
L 1900 2988 
Q 2163 3284 2459 3434 
Q 2756 3584 3078 3584 
Q 3441 3584 3700 3398 
Q 3959 3213 4013 2919 
z
" transform="scale(0.015625)"/>
      <path id="DejaVuSans-BoldOblique-62" d="M 2597 2772 
Q 2166 2772 1892 2373 
Q 1619 1975 1619 1338 
Q 1619 1050 1773 886 
Q 1928 722 2203 722 
Q 2625 722 2900 1114 
Q 3175 1506 3175 2119 
Q 3175 2438 3026 2605 
Q 2878 2772 2597 2772 
z
M 1422 506 
L 1319 0 
L 197 0 
L 1141 4863 
L 2266 4863 
L 1900 2988 
Q 2156 3294 2437 3439 
Q 2719 3584 3053 3584 
Q 3644 3584 3987 3209 
Q 4331 2834 4331 2188 
Q 4331 1784 4211 1403 
Q 4091 1022 3866 709 
Q 3581 316 3223 112 
Q 2866 -91 2456 -91 
Q 2097 -91 1845 54 
Q 1594 200 1422 506 
z
" transform="scale(0.015625)"/>
      <path id="DejaVuSans-BoldOblique-64" d="M 1966 722 
Q 2397 722 2667 1119 
Q 2938 1516 2938 2156 
Q 2938 2447 2786 2609 
Q 2634 2772 2363 2772 
Q 1938 2772 1663 2380 
Q 1388 1988 1388 1375 
Q 1388 1056 1536 889 
Q 1684 722 1966 722 
z
M 3144 2988 
L 3506 4863 
L 4634 4863 
L 3688 0 
L 2559 0 
L 2663 506 
Q 2406 200 2125 54 
Q 1844 -91 1509 -91 
Q 919 -91 575 284 
Q 231 659 231 1306 
Q 231 1709 351 2090 
Q 472 2472 697 2784 
Q 981 3178 1339 3381 
Q 1697 3584 2106 3584 
Q 2466 3584 2717 3439 
Q 2969 3294 3144 2988 
z
" transform="scale(0.015625)"/>
      <path id="DejaVuSans-BoldOblique-69" d="M 878 3500 
L 2003 3500 
L 1319 0 
L 197 0 
L 878 3500 
z
M 1141 4863 
L 2266 4863 
L 2088 3950 
L 959 3950 
L 1141 4863 
z
" transform="scale(0.015625)"/>
      <path id="DejaVuSans-BoldOblique-6e" d="M 4128 2131 
L 3713 0 
L 2591 0 
L 2944 1825 
Q 2981 2003 3001 2126 
Q 3022 2250 3022 2322 
Q 3022 2522 2911 2631 
Q 2800 2741 2597 2741 
Q 2250 2741 2001 2470 
Q 1753 2200 1656 1722 
L 1319 0 
L 197 0 
L 878 3500 
L 2003 3500 
L 1900 2988 
Q 2209 3291 2521 3437 
Q 2834 3584 3175 3584 
Q 3659 3584 3921 3331 
Q 4184 3078 4184 2619 
Q 4184 2519 4170 2397 
Q 4156 2275 4128 2131 
z
" transform="scale(0.015625)"/>
      <path id="DejaVuSans-BoldOblique-67" d="M 2675 594 
Q 2406 288 2128 144 
Q 1850 0 1522 0 
Q 928 0 583 383 
Q 238 766 238 1428 
Q 238 1781 358 2136 
Q 478 2491 703 2803 
Q 978 3181 1334 3379 
Q 1691 3578 2100 3578 
Q 2469 3578 2720 3434 
Q 2972 3291 3144 2981 
L 3238 3500 
L 4366 3500 
L 3775 459 
Q 3594 -481 3000 -931 
Q 2406 -1381 1350 -1381 
Q 1025 -1381 723 -1331 
Q 422 -1281 128 -1178 
L 294 -306 
Q 559 -475 825 -558 
Q 1091 -641 1369 -641 
Q 1925 -641 2223 -403 
Q 2522 -166 2625 353 
L 2675 594 
z
M 2363 2772 
Q 1950 2772 1676 2400 
Q 1403 2028 1403 1466 
Q 1403 1147 1550 980 
Q 1697 813 1978 813 
Q 2388 813 2663 1183 
Q 2938 1553 2938 2106 
Q 2938 2431 2791 2601 
Q 2644 2772 2363 2772 
z
" transform="scale(0.015625)"/>
      <path id="DejaVuSans-BoldOblique-28" d="M 1888 -844 
L 978 -844 
Q 734 -325 614 173 
Q 494 672 494 1166 
Q 494 2088 891 3008 
Q 1288 3928 2088 4856 
L 2994 4856 
Q 2266 3888 1908 2939 
Q 1550 1991 1550 1038 
Q 1550 569 1634 101 
Q 1719 -366 1888 -844 
z
" transform="scale(0.015625)"/>
      <path id="DejaVuSans-BoldOblique-22" d="M 2725 4666 
L 2725 2931 
L 1984 2931 
L 1984 4666 
L 2725 4666 
z
M 1350 4666 
L 1350 2931 
L 609 2931 
L 609 4666 
L 1350 4666 
z
" transform="scale(0.015625)"/>
      <path id="DejaVuSans-BoldOblique-42" d="M 2559 2859 
Q 2881 2859 3062 3021 
Q 3244 3184 3244 3469 
Q 3244 3653 3117 3750 
Q 2991 3847 2753 3847 
L 2081 3847 
L 1888 2859 
L 2559 2859 
z
M 2203 819 
Q 2616 819 2837 1016 
Q 3059 1213 3059 1581 
Q 3059 1816 2906 1928 
Q 2753 2041 2438 2041 
L 1728 2041 
L 1491 819 
L 2203 819 
z
M 3628 2497 
Q 3934 2409 4101 2176 
Q 4269 1944 4269 1600 
Q 4269 847 3708 423 
Q 3147 0 2131 0 
L 134 0 
L 1044 4666 
L 2847 4666 
Q 3678 4666 4076 4422 
Q 4475 4178 4475 3669 
Q 4475 3241 4240 2917 
Q 4006 2594 3628 2497 
z
" transform="scale(0.015625)"/>
      <path id="DejaVuSans-BoldOblique-61" d="M 2106 1575 
Q 1688 1575 1473 1445 
Q 1259 1316 1259 1063 
Q 1259 872 1386 762 
Q 1513 653 1734 653 
Q 2078 653 2309 861 
Q 2541 1069 2619 1447 
L 2644 1575 
L 2106 1575 
z
M 3853 1997 
L 3463 0 
L 2344 0 
L 2438 519 
Q 2163 206 1856 57 
Q 1550 -91 1191 -91 
Q 694 -91 401 167 
Q 109 425 109 863 
Q 109 1531 626 1886 
Q 1144 2241 2119 2241 
L 2778 2241 
L 2791 2328 
Q 2800 2372 2801 2390 
Q 2803 2409 2803 2425 
Q 2803 2631 2608 2736 
Q 2413 2841 2028 2841 
Q 1681 2841 1356 2769 
Q 1031 2697 728 2553 
L 897 3406 
Q 1247 3494 1614 3539 
Q 1981 3584 2375 3584 
Q 3153 3584 3531 3317 
Q 3909 3050 3909 2503 
Q 3909 2397 3895 2270 
Q 3881 2144 3853 1997 
z
" transform="scale(0.015625)"/>
      <path id="DejaVuSans-BoldOblique-6b" d="M 1141 4863 
L 2266 4863 
L 1753 2228 
L 3263 3500 
L 4581 3500 
L 2547 1881 
L 4025 0 
L 2747 0 
L 1613 1509 
L 1319 0 
L 197 0 
L 1141 4863 
z
" transform="scale(0.015625)"/>
      <path id="DejaVuSans-BoldOblique-29" d="M 934 4856 
L 1850 4856 
Q 2091 4344 2209 3845 
Q 2328 3347 2328 2847 
Q 2328 1916 1933 995 
Q 1538 75 744 -844 
L -172 -844 
Q 556 125 915 1075 
Q 1275 2025 1275 2981 
Q 1275 3450 1190 3914 
Q 1106 4378 934 4856 
z
" transform="scale(0.015625)"/>
     </defs>
     <use xlink:href="#DejaVuSans-BoldOblique-65"/>
     <use xlink:href="#DejaVuSans-BoldOblique-6d" transform="translate(67.822266 0)"/>
     <use xlink:href="#DejaVuSans-BoldOblique-62" transform="translate(172.021484 0)"/>
     <use xlink:href="#DejaVuSans-BoldOblique-65" transform="translate(243.603516 0)"/>
     <use xlink:href="#DejaVuSans-BoldOblique-64" transform="translate(311.425781 0)"/>
     <use xlink:href="#DejaVuSans-BoldOblique-64" transform="translate(383.007812 0)"/>
     <use xlink:href="#DejaVuSans-BoldOblique-69" transform="translate(454.589844 0)"/>
     <use xlink:href="#DejaVuSans-BoldOblique-6e" transform="translate(488.867188 0)"/>
     <use xlink:href="#DejaVuSans-BoldOblique-67" transform="translate(560.058594 0)"/>
     <use xlink:href="#DejaVuSans-BoldOblique-28" transform="translate(631.640625 0)"/>
     <use xlink:href="#DejaVuSans-BoldOblique-22" transform="translate(677.34375 0)"/>
     <use xlink:href="#DejaVuSans-BoldOblique-42" transform="translate(729.443359 0)"/>
     <use xlink:href="#DejaVuSans-BoldOblique-61" transform="translate(805.664062 0)"/>
     <use xlink:href="#DejaVuSans-BoldOblique-6e" transform="translate(873.144531 0)"/>
     <use xlink:href="#DejaVuSans-BoldOblique-6b" transform="translate(944.335938 0)"/>
     <use xlink:href="#DejaVuSans-BoldOblique-22" transform="translate(1010.839844 0)"/>
     <use xlink:href="#DejaVuSans-BoldOblique-29" transform="translate(1062.939453 0)"/>
    </g>
   </g>
   <g id="text_2">
    <!-- embedding("Park") -->
    <g style="fill: #059669" transform="translate(271.665354 207.509944) scale(0.09 -0.09)">
     <defs>
      <path id="DejaVuSans-BoldOblique-50" d="M 1044 4666 
L 3041 4666 
Q 3775 4666 4189 4330 
Q 4603 3994 4603 3397 
Q 4603 3031 4465 2701 
Q 4328 2372 4072 2125 
Q 3794 1859 3409 1739 
Q 3025 1619 2444 1619 
L 1650 1619 
L 1338 0 
L 134 0 
L 1044 4666 
z
M 2081 3794 
L 1825 2491 
L 2491 2491 
Q 2916 2491 3141 2691 
Q 3366 2891 3366 3272 
Q 3366 3525 3205 3659 
Q 3044 3794 2741 3794 
L 2081 3794 
z
" transform="scale(0.015625)"/>
      <path id="DejaVuSans-BoldOblique-72" d="M 3291 2547 
Q 3175 2613 3034 2647 
Q 2894 2681 2731 2681 
Q 2303 2681 2020 2406 
Q 1738 2131 1638 1613 
L 1319 0 
L 197 0 
L 878 3500 
L 2003 3500 
L 1881 2900 
Q 2103 3231 2436 3407 
Q 2769 3584 3175 3584 
Q 3234 3584 3309 3578 
Q 3384 3572 3488 3559 
L 3291 2547 
z
" transform="scale(0.015625)"/>
     </defs>
     <use xlink:href="#DejaVuSans-BoldOblique-65"/>
     <use xlink:href="#DejaVuSans-BoldOblique-6d" transform="translate(67.822266 0)"/>
     <use xlink:href="#DejaVuSans-BoldOblique-62" transform="translate(172.021484 0)"/>
     <use xlink:href="#DejaVuSans-BoldOblique-65" transform="translate(243.603516 0)"/>
     <use xlink:href="#DejaVuSans-BoldOblique-64" transform="translate(311.425781 0)"/>
     <use xlink:href="#DejaVuSans-BoldOblique-64" transform="translate(383.007812 0)"/>
     <use xlink:href="#DejaVuSans-BoldOblique-69" transform="translate(454.589844 0)"/>
     <use xlink:href="#DejaVuSans-BoldOblique-6e" transform="translate(488.867188 0)"/>
     <use xlink:href="#DejaVuSans-BoldOblique-67" transform="translate(560.058594 0)"/>
     <use xlink:href="#DejaVuSans-BoldOblique-28" transform="translate(631.640625 0)"/>
     <use xlink:href="#DejaVuSans-BoldOblique-22" transform="translate(677.34375 0)"/>
     <use xlink:href="#DejaVuSans-BoldOblique-50" transform="translate(729.443359 0)"/>
     <use xlink:href="#DejaVuSans-BoldOblique-61" transform="translate(796.359375 0)"/>
     <use xlink:href="#DejaVuSans-BoldOblique-72" transform="translate(863.839844 0)"/>
     <use xlink:href="#DejaVuSans-BoldOblique-6b" transform="translate(913.15625 0)"/>
     <use xlink:href="#DejaVuSans-BoldOblique-22" transform="translate(979.660156 0)"/>
     <use xlink:href="#DejaVuSans-BoldOblique-29" transform="translate(1031.759766 0)"/>
    </g>
   </g>
   <g id="text_3">
    <!-- embedding("Geld") -->
    <g style="fill: #d97706" transform="translate(312.589114 198.465042) scale(0.09 -0.09)">
     <defs>
      <path id="DejaVuSans-BoldOblique-47" d="M 4359 347 
Q 3903 125 3412 17 
Q 2922 -91 2363 -91 
Q 1369 -91 800 414 
Q 231 919 231 1791 
Q 231 2356 409 2851 
Q 588 3347 941 3756 
Q 1372 4256 1958 4503 
Q 2544 4750 3297 4750 
Q 3716 4750 4141 4662 
Q 4566 4575 4978 4403 
L 4794 3438 
Q 4413 3659 4048 3768 
Q 3684 3878 3316 3878 
Q 2509 3878 2003 3340 
Q 1497 2803 1497 1959 
Q 1497 1400 1792 1090 
Q 2088 781 2625 781 
Q 2800 781 2975 804 
Q 3150 828 3328 878 
L 3506 1784 
L 2772 1784 
L 2925 2591 
L 4794 2591 
L 4359 347 
z
" transform="scale(0.015625)"/>
      <path id="DejaVuSans-BoldOblique-6c" d="M 1141 4863 
L 2266 4863 
L 1319 0 
L 197 0 
L 1141 4863 
z
" transform="scale(0.015625)"/>
     </defs>
     <use xlink:href="#DejaVuSans-BoldOblique-65"/>
     <use xlink:href="#DejaVuSans-BoldOblique-6d" transform="translate(67.822266 0)"/>
     <use xlink:href="#DejaVuSans-BoldOblique-62" transform="translate(172.021484 0)"/>
     <use xlink:href="#DejaVuSans-BoldOblique-65" transform="translate(243.603516 0)"/>
     <use xlink:href="#DejaVuSans-BoldOblique-64" transform="translate(311.425781 0)"/>
     <use xlink:href="#DejaVuSans-BoldOblique-64" transform="translate(383.007812 0)"/>
     <use xlink:href="#DejaVuSans-BoldOblique-69" transform="translate(454.589844 0)"/>
     <use xlink:href="#DejaVuSans-BoldOblique-6e" transform="translate(488.867188 0)"/>
     <use xlink:href="#DejaVuSans-BoldOblique-67" transform="translate(560.058594 0)"/>
     <use xlink:href="#DejaVuSans-BoldOblique-28" transform="translate(631.640625 0)"/>
     <use xlink:href="#DejaVuSans-BoldOblique-22" transform="translate(677.34375 0)"/>
     <use xlink:href="#DejaVuSans-BoldOblique-47" transform="translate(729.443359 0)"/>
     <use xlink:href="#DejaVuSans-BoldOblique-65" transform="translate(811.523438 0)"/>
     <use xlink:href="#DejaVuSans-BoldOblique-6c" transform="translate(879.345703 0)"/>
     <use xlink:href="#DejaVuSans-BoldOblique-64" transform="translate(913.623047 0)"/>
     <use xlink:href="#DejaVuSans-BoldOblique-22" transform="translate(985.205078 0)"/>
     <use xlink:href="#DejaVuSans-BoldOblique-29" transform="translate(1037.304688 0)"/>
    </g>
   </g>
   <g id="text_4">
    <!-- embedding("saß") -->
    <g style="fill: #94a3b8" transform="translate(140.110199 295.187533) scale(0.08 -0.08)">
     <defs>
      <path id="DejaVuSans-Oblique-65" d="M 3078 2063 
Q 3088 2113 3092 2166 
Q 3097 2219 3097 2272 
Q 3097 2653 2873 2875 
Q 2650 3097 2266 3097 
Q 1838 3097 1509 2826 
Q 1181 2556 1013 2059 
L 3078 2063 
z
M 3578 1613 
L 903 1613 
Q 884 1494 878 1425 
Q 872 1356 872 1306 
Q 872 872 1139 634 
Q 1406 397 1894 397 
Q 2269 397 2603 481 
Q 2938 566 3225 728 
L 3116 159 
Q 2806 34 2476 -28 
Q 2147 -91 1806 -91 
Q 1078 -91 686 257 
Q 294 606 294 1247 
Q 294 1794 489 2264 
Q 684 2734 1063 3103 
Q 1306 3334 1642 3459 
Q 1978 3584 2356 3584 
Q 2950 3584 3301 3228 
Q 3653 2872 3653 2272 
Q 3653 2128 3634 1964 
Q 3616 1800 3578 1613 
z
" transform="scale(0.015625)"/>
      <path id="DejaVuSans-Oblique-6d" d="M 5747 2113 
L 5338 0 
L 4763 0 
L 5166 2094 
Q 5191 2228 5203 2325 
Q 5216 2422 5216 2491 
Q 5216 2772 5059 2928 
Q 4903 3084 4622 3084 
Q 4203 3084 3875 2770 
Q 3547 2456 3450 1953 
L 3066 0 
L 2491 0 
L 2900 2094 
Q 2925 2209 2937 2307 
Q 2950 2406 2950 2484 
Q 2950 2769 2794 2926 
Q 2638 3084 2363 3084 
Q 1938 3084 1609 2770 
Q 1281 2456 1184 1953 
L 800 0 
L 225 0 
L 909 3500 
L 1484 3500 
L 1375 2956 
Q 1609 3263 1923 3423 
Q 2238 3584 2597 3584 
Q 2978 3584 3223 3384 
Q 3469 3184 3519 2828 
Q 3781 3197 4126 3390 
Q 4472 3584 4856 3584 
Q 5306 3584 5551 3325 
Q 5797 3066 5797 2591 
Q 5797 2488 5784 2364 
Q 5772 2241 5747 2113 
z
" transform="scale(0.015625)"/>
      <path id="DejaVuSans-Oblique-62" d="M 3169 2138 
Q 3169 2591 2961 2847 
Q 2753 3103 2388 3103 
Q 2122 3103 1889 2973 
Q 1656 2844 1484 2597 
Q 1303 2338 1198 1995 
Q 1094 1653 1094 1313 
Q 1094 881 1298 636 
Q 1503 391 1863 391 
Q 2134 391 2365 517 
Q 2597 644 2772 891 
Q 2950 1147 3059 1487 
Q 3169 1828 3169 2138 
z
M 1381 2969 
Q 1594 3256 1914 3420 
Q 2234 3584 2584 3584 
Q 3122 3584 3439 3221 
Q 3756 2859 3756 2241 
Q 3756 1734 3570 1259 
Q 3384 784 3041 416 
Q 2816 172 2522 40 
Q 2228 -91 1906 -91 
Q 1566 -91 1316 65 
Q 1066 222 909 531 
L 806 0 
L 231 0 
L 1178 4863 
L 1753 4863 
L 1381 2969 
z
" transform="scale(0.015625)"/>
      <path id="DejaVuSans-Oblique-64" d="M 2675 525 
Q 2444 222 2128 65 
Q 1813 -91 1428 -91 
Q 903 -91 598 267 
Q 294 625 294 1247 
Q 294 1766 478 2236 
Q 663 2706 1013 3078 
Q 1244 3325 1534 3454 
Q 1825 3584 2144 3584 
Q 2481 3584 2739 3421 
Q 2997 3259 3138 2956 
L 3513 4863 
L 4091 4863 
L 3144 0 
L 2566 0 
L 2675 525 
z
M 891 1350 
Q 891 897 1095 644 
Q 1300 391 1663 391 
Q 1931 391 2161 520 
Q 2391 650 2566 903 
Q 2750 1166 2856 1509 
Q 2963 1853 2963 2188 
Q 2963 2622 2758 2865 
Q 2553 3109 2194 3109 
Q 1922 3109 1687 2981 
Q 1453 2853 1288 2613 
Q 1106 2353 998 2009 
Q 891 1666 891 1350 
z
" transform="scale(0.015625)"/>
      <path id="DejaVuSans-Oblique-69" d="M 1172 4863 
L 1747 4863 
L 1606 4134 
L 1031 4134 
L 1172 4863 
z
M 909 3500 
L 1484 3500 
L 800 0 
L 225 0 
L 909 3500 
z
" transform="scale(0.015625)"/>
      <path id="DejaVuSans-Oblique-6e" d="M 3566 2113 
L 3156 0 
L 2578 0 
L 2988 2091 
Q 3016 2238 3031 2350 
Q 3047 2463 3047 2528 
Q 3047 2791 2881 2937 
Q 2716 3084 2419 3084 
Q 1956 3084 1622 2776 
Q 1288 2469 1184 1941 
L 800 0 
L 225 0 
L 903 3500 
L 1478 3500 
L 1363 2950 
Q 1603 3253 1940 3418 
Q 2278 3584 2650 3584 
Q 3113 3584 3367 3334 
Q 3622 3084 3622 2631 
Q 3622 2519 3608 2391 
Q 3594 2263 3566 2113 
z
" transform="scale(0.015625)"/>
      <path id="DejaVuSans-Oblique-67" d="M 3816 3500 
L 3219 434 
Q 3047 -456 2561 -893 
Q 2075 -1331 1253 -1331 
Q 950 -1331 690 -1286 
Q 431 -1241 206 -1147 
L 313 -588 
Q 525 -725 762 -790 
Q 1000 -856 1269 -856 
Q 1816 -856 2167 -557 
Q 2519 -259 2631 300 
L 2681 563 
Q 2441 288 2122 144 
Q 1803 0 1434 0 
Q 903 0 598 351 
Q 294 703 294 1319 
Q 294 1803 478 2267 
Q 663 2731 997 3091 
Q 1219 3328 1514 3456 
Q 1809 3584 2131 3584 
Q 2484 3584 2746 3420 
Q 3009 3256 3138 2956 
L 3238 3500 
L 3816 3500 
z
M 2950 2216 
Q 2950 2641 2750 2872 
Q 2550 3103 2181 3103 
Q 1953 3103 1747 3012 
Q 1541 2922 1394 2759 
Q 1156 2491 1023 2127 
Q 891 1763 891 1375 
Q 891 944 1092 712 
Q 1294 481 1672 481 
Q 2219 481 2584 976 
Q 2950 1472 2950 2216 
z
" transform="scale(0.015625)"/>
      <path id="DejaVuSans-Oblique-28" d="M 2731 4856 
Q 1903 3822 1495 2892 
Q 1088 1963 1088 1100 
Q 1088 606 1206 120 
Q 1325 -366 1563 -844 
L 1063 -844 
Q 775 -306 634 201 
Q 494 709 494 1197 
Q 494 2125 923 3036 
Q 1353 3947 2222 4856 
L 2731 4856 
z
" transform="scale(0.015625)"/>
      <path id="DejaVuSans-Oblique-22" d="M 1147 4666 
L 1147 2931 
L 616 2931 
L 616 4666 
L 1147 4666 
z
M 2328 4666 
L 2328 2931 
L 1797 2931 
L 1797 4666 
L 2328 4666 
z
" transform="scale(0.015625)"/>
      <path id="DejaVuSans-Oblique-73" d="M 3200 3397 
L 3091 2853 
Q 2863 2978 2609 3040 
Q 2356 3103 2088 3103 
Q 1634 3103 1373 2948 
Q 1113 2794 1113 2528 
Q 1113 2219 1719 2053 
Q 1766 2041 1788 2034 
L 1972 1978 
Q 2547 1819 2739 1644 
Q 2931 1469 2931 1166 
Q 2931 609 2489 259 
Q 2047 -91 1331 -91 
Q 1053 -91 747 -37 
Q 441 16 72 128 
L 184 722 
Q 500 559 806 475 
Q 1113 391 1394 391 
Q 1816 391 2080 572 
Q 2344 753 2344 1031 
Q 2344 1331 1650 1516 
L 1591 1531 
L 1394 1581 
Q 956 1697 753 1886 
Q 550 2075 550 2369 
Q 550 2928 970 3256 
Q 1391 3584 2113 3584 
Q 2397 3584 2667 3537 
Q 2938 3491 3200 3397 
z
" transform="scale(0.015625)"/>
      <path id="DejaVuSans-Oblique-61" d="M 3438 1997 
L 3047 0 
L 2472 0 
L 2578 531 
Q 2325 219 2001 64 
Q 1678 -91 1281 -91 
Q 834 -91 548 182 
Q 263 456 263 884 
Q 263 1497 752 1853 
Q 1241 2209 2100 2209 
L 2900 2209 
L 2931 2363 
Q 2938 2388 2941 2417 
Q 2944 2447 2944 2509 
Q 2944 2788 2717 2942 
Q 2491 3097 2081 3097 
Q 1800 3097 1504 3025 
Q 1209 2953 897 2809 
L 997 3341 
Q 1322 3463 1633 3523 
Q 1944 3584 2234 3584 
Q 2853 3584 3176 3315 
Q 3500 3047 3500 2534 
Q 3500 2431 3484 2292 
Q 3469 2153 3438 1997 
z
M 2816 1759 
L 2241 1759 
Q 1534 1759 1195 1570 
Q 856 1381 856 984 
Q 856 709 1029 553 
Q 1203 397 1509 397 
Q 1978 397 2328 733 
Q 2678 1069 2791 1631 
L 2816 1759 
z
" transform="scale(0.015625)"/>
      <path id="DejaVuSans-Oblique-df" d="M 991 3553 
Q 1109 4169 1523 4516 
Q 1938 4863 2553 4863 
Q 3097 4863 3436 4572 
Q 3775 4281 3775 3822 
Q 3775 3744 3765 3648 
Q 3756 3553 3738 3438 
Q 3231 3413 2918 3202 
Q 2606 2991 2606 2688 
Q 2606 2563 2672 2450 
Q 2738 2338 2888 2222 
L 3041 2100 
Q 3413 1806 3541 1601 
Q 3669 1397 3669 1147 
Q 3669 609 3234 259 
Q 2800 -91 2119 -91 
Q 1881 -91 1662 -52 
Q 1444 -13 1247 63 
L 1344 575 
Q 1547 484 1764 437 
Q 1981 391 2203 391 
Q 2591 391 2831 569 
Q 3072 747 3072 1031 
Q 3072 1172 2998 1294 
Q 2925 1416 2681 1625 
L 2522 1759 
Q 2219 2016 2114 2189 
Q 2009 2363 2009 2572 
Q 2009 2966 2340 3281 
Q 2672 3597 3213 3713 
Q 3219 3738 3222 3769 
Q 3225 3800 3225 3859 
Q 3225 4103 3048 4243 
Q 2872 4384 2559 4384 
Q 2144 4384 1894 4171 
Q 1644 3959 1563 3541 
L 878 0 
L 300 0 
L 991 3553 
z
" transform="scale(0.015625)"/>
      <path id="DejaVuSans-Oblique-29" d="M -397 -844 
Q 434 191 840 1120 
Q 1247 2050 1247 2913 
Q 1247 3406 1130 3892 
Q 1013 4378 775 4856 
L 1275 4856 
Q 1563 4316 1703 3812 
Q 1844 3309 1844 2822 
Q 1844 1891 1411 973 
Q 978 56 116 -844 
L -397 -844 
z
" transform="scale(0.015625)"/>
     </defs>
     <use xlink:href="#DejaVuSans-Oblique-65"/>
     <use xlink:href="#DejaVuSans-Oblique-6d" transform="translate(61.523438 0)"/>
     <use xlink:href="#DejaVuSans-Oblique-62" transform="translate(158.935547 0)"/>
     <use xlink:href="#DejaVuSans-Oblique-65" transform="translate(222.412109 0)"/>
     <use xlink:href="#DejaVuSans-Oblique-64" transform="translate(283.935547 0)"/>
     <use xlink:href="#DejaVuSans-Oblique-64" transform="translate(347.412109 0)"/>
     <use xlink:href="#DejaVuSans-Oblique-69" transform="translate(410.888672 0)"/>
     <use xlink:href="#DejaVuSans-Oblique-6e" transform="translate(438.671875 0)"/>
     <use xlink:href="#DejaVuSans-Oblique-67" transform="translate(502.050781 0)"/>
     <use xlink:href="#DejaVuSans-Oblique-28" transform="translate(565.527344 0)"/>
     <use xlink:href="#DejaVuSans-Oblique-22" transform="translate(604.541016 0)"/>
     <use xlink:href="#DejaVuSans-Oblique-73" transform="translate(650.537109 0)"/>
     <use xlink:href="#DejaVuSans-Oblique-61" transform="translate(702.636719 0)"/>
     <use xlink:href="#DejaVuSans-Oblique-df" transform="translate(763.916016 0)"/>
     <use xlink:href="#DejaVuSans-Oblique-22" transform="translate(826.904297 0)"/>
     <use xlink:href="#DejaVuSans-Oblique-29" transform="translate(872.900391 0)"/>
    </g>
   </g>
   <g id="text_5">
    <!-- embedding("ging") -->
    <g style="fill: #94a3b8" transform="translate(150.214919 313.040831) scale(0.08 -0.08)">
     <use xlink:href="#DejaVuSans-Oblique-65"/>
     <use xlink:href="#DejaVuSans-Oblique-6d" transform="translate(61.523438 0)"/>
     <use xlink:href="#DejaVuSans-Oblique-62" transform="translate(158.935547 0)"/>
     <use xlink:href="#DejaVuSans-Oblique-65" transform="translate(222.412109 0)"/>
     <use xlink:href="#DejaVuSans-Oblique-64" transform="translate(283.935547 0)"/>
     <use xlink:href="#DejaVuSans-Oblique-64" transform="translate(347.412109 0)"/>
     <use xlink:href="#DejaVuSans-Oblique-69" transform="translate(410.888672 0)"/>
     <use xlink:href="#DejaVuSans-Oblique-6e" transform="translate(438.671875 0)"/>
     <use xlink:href="#DejaVuSans-Oblique-67" transform="translate(502.050781 0)"/>
     <use xlink:href="#DejaVuSans-Oblique-28" transform="translate(565.527344 0)"/>
     <use xlink:href="#DejaVuSans-Oblique-22" transform="translate(604.541016 0)"/>
     <use xlink:href="#DejaVuSans-Oblique-67" transform="translate(650.537109 0)"/>
     <use xlink:href="#DejaVuSans-Oblique-69" transform="translate(714.013672 0)"/>
     <use xlink:href="#DejaVuSans-Oblique-6e" transform="translate(741.796875 0)"/>
     <use xlink:href="#DejaVuSans-Oblique-67" transform="translate(805.175781 0)"/>
     <use xlink:href="#DejaVuSans-Oblique-22" transform="translate(868.652344 0)"/>
     <use xlink:href="#DejaVuSans-Oblique-29" transform="translate(914.648438 0)"/>
    </g>
   </g>
   <g id="text_6">
    <!-- embedding("abheben") -->
    <g style="fill: #94a3b8" transform="translate(142.595416 300.890112) scale(0.08 -0.08)">
     <defs>
      <path id="DejaVuSans-Oblique-68" d="M 3566 2113 
L 3156 0 
L 2578 0 
L 2988 2091 
Q 3016 2238 3031 2350 
Q 3047 2463 3047 2528 
Q 3047 2791 2881 2937 
Q 2716 3084 2419 3084 
Q 1956 3084 1617 2771 
Q 1278 2459 1178 1941 
L 800 0 
L 225 0 
L 1172 4863 
L 1747 4863 
L 1375 2950 
Q 1594 3244 1934 3414 
Q 2275 3584 2650 3584 
Q 3113 3584 3367 3334 
Q 3622 3084 3622 2631 
Q 3622 2519 3608 2391 
Q 3594 2263 3566 2113 
z
" transform="scale(0.015625)"/>
     </defs>
     <use xlink:href="#DejaVuSans-Oblique-65"/>
     <use xlink:href="#DejaVuSans-Oblique-6d" transform="translate(61.523438 0)"/>
     <use xlink:href="#DejaVuSans-Oblique-62" transform="translate(158.935547 0)"/>
     <use xlink:href="#DejaVuSans-Oblique-65" transform="translate(222.412109 0)"/>
     <use xlink:href="#DejaVuSans-Oblique-64" transform="translate(283.935547 0)"/>
     <use xlink:href="#DejaVuSans-Oblique-64" transform="translate(347.412109 0)"/>
     <use xlink:href="#DejaVuSans-Oblique-69" transform="translate(410.888672 0)"/>
     <use xlink:href="#DejaVuSans-Oblique-6e" transform="translate(438.671875 0)"/>
     <use xlink:href="#DejaVuSans-Oblique-67" transform="translate(502.050781 0)"/>
     <use xlink:href="#DejaVuSans-Oblique-28" transform="translate(565.527344 0)"/>
     <use xlink:href="#DejaVuSans-Oblique-22" transform="translate(604.541016 0)"/>
     <use xlink:href="#DejaVuSans-Oblique-61" transform="translate(650.537109 0)"/>
     <use xlink:href="#DejaVuSans-Oblique-62" transform="translate(711.816406 0)"/>
     <use xlink:href="#DejaVuSans-Oblique-68" transform="translate(775.292969 0)"/>
     <use xlink:href="#DejaVuSans-Oblique-65" transform="translate(838.671875 0)"/>
     <use xlink:href="#DejaVuSans-Oblique-62" transform="translate(900.195312 0)"/>
     <use xlink:href="#DejaVuSans-Oblique-65" transform="translate(963.671875 0)"/>
     <use xlink:href="#DejaVuSans-Oblique-6e" transform="translate(1025.195312 0)"/>
     <use xlink:href="#DejaVuSans-Oblique-22" transform="translate(1088.574219 0)"/>
     <use xlink:href="#DejaVuSans-Oblique-29" transform="translate(1134.570312 0)"/>
    </g>
   </g>
  </g>
 </g>
 <defs>
  <clipPath id="p044d9a6f35">
   <rect x="7.2" y="7.2" width="518.4" height="518.4"/>
  </clipPath>
 </defs>
</svg>
